<?xml version="1.0" standalone="no"?>
<!DOCTYPE svg PUBLIC "-//W3C//DTD SVG 20010904//EN"
 "http://www.w3.org/TR/2001/REC-SVG-20010904/DTD/svg10.dtd">
<svg version="1.0" xmlns="http://www.w3.org/2000/svg"
 width="612.000000pt" height="612.000000pt" viewBox="0 0 612.000000 612.000000"
 preserveAspectRatio="xMidYMid meet">
<metadata>
Created by potrace 1.14, written by Peter Selinger 2001-2017
</metadata>
<g transform="translate(0.000000,612.000000) scale(0.100000,-0.100000)"
fill="#000000" stroke="none">
<path d="M2093 4028 c-17 -4 -43 -22 -58 -40 l-26 -31 8 -246 c4 -135 8 -340
8 -455 l0 -208 -55 -20 c-179 -66 -362 -141 -384 -159 -14 -11 -30 -36 -35
-57 -20 -70 43 -150 113 -144 12 1 89 28 171 60 83 33 161 63 174 67 l24 7 -6
-315 c-6 -314 -5 -316 17 -349 42 -63 125 -67 177 -9 25 27 27 38 33 142 4 63
8 227 9 364 l2 250 120 41 c66 22 133 44 149 48 l28 7 -6 -113 c-3 -62 -13
-242 -22 -400 -20 -328 -19 -334 50 -368 34 -16 48 -18 75 -10 48 13 68 35 92
99 16 45 19 69 14 121 -3 36 -1 127 4 203 6 76 13 228 17 338 l7 198 31 10
c17 6 100 28 183 50 153 39 153 39 157 18 3 -12 12 -121 21 -242 9 -121 27
-332 41 -470 27 -278 31 -289 101 -314 35 -13 46 -13 79 0 23 9 46 27 57 47
19 32 19 36 -2 240 -35 348 -72 805 -65 811 9 9 379 78 382 71 1 -4 -17 -131
-42 -281 -66 -399 -79 -522 -74 -669 5 -136 15 -170 61 -204 36 -26 99 -26
135 1 51 38 74 83 69 136 -2 26 -11 55 -21 65 -30 34 -14 205 66 683 l52 317
156 21 c85 11 187 24 225 27 129 12 187 65 164 149 -11 40 -51 84 -78 86 -31
2 -58 0 -244 -22 -103 -12 -189 -20 -191 -18 -1 2 1 63 5 134 15 216 -1 288
-69 321 -47 22 -107 2 -139 -45 -21 -31 -23 -45 -24 -185 -1 -83 -4 -178 -8
-211 -5 -55 -8 -60 -31 -63 -14 -2 -110 -19 -213 -39 -103 -19 -191 -33 -194
-30 -3 4 -10 107 -15 229 -11 271 -12 280 -44 317 -31 38 -78 48 -127 28 -69
-29 -71 -39 -63 -300 3 -128 9 -255 12 -283 l6 -51 -168 -41 c-93 -23 -172
-42 -176 -42 -5 0 -8 127 -9 283 -1 336 -5 376 -44 417 -24 25 -37 30 -75 30
-25 0 -55 -7 -68 -16 -50 -35 -51 -44 -45 -419 2 -193 1 -355 -4 -360 -9 -11
-263 -95 -288 -95 -13 0 -15 23 -15 149 0 265 -20 652 -35 681 -26 50 -77 73
-132 58z"/>
</g>
</svg>
